<svg xmlns="http://www.w3.org/2000/svg" viewBox="0 0 64 64" width="64" height="64">
  <defs>
    <linearGradient id="g" x1="0" x2="1" y1="0" y2="1">
      <stop offset="0" stop-color="#10b981"/>
      <stop offset="1" stop-color="#059669"/>
    </linearGradient>
  </defs>
  <rect width="64" height="64" rx="12" fill="url(#g)" />
  <g transform="translate(8,8) scale(0.75)" fill="white">
    <path d="M24 4c-9.94 0-18 6.91-18 15.42 0 6.03 4.58 11.23 11 13.02V36l6.69-3.72C33.26 33.03 34.6 33 36 33c9.94 0 18-6.91 18-15.42C54 10.91 45.94 4 36 4H24z" opacity="0.95"/>
    <path d="M18 23a2 2 0 1 1 0-4 2 2 0 0 1 0 4zm8 0a2 2 0 1 1 0-4 2 2 0 0 1 0 4z"/>
  </g>
</svg>
